<svg version="1.1" id="Layer_1" xmlns="http://www.w3.org/2000/svg" xmlns:xlink="http://www.w3.org/1999/xlink" x="0px" y="0px"
	 width="100%" viewBox="0 0 227 222" enable-background="new 0 0 227 222" xml:space="preserve">
<path fill="#FEFEFE" opacity="1.000000" stroke="none" 
	d="
M148.000000,223.000000 
	C99.069679,223.000000 50.139355,223.000000 1.000000,223.000000 
	C1.000000,169.645950 1.000000,116.291634 1.466338,62.404736 
	C9.175797,61.872154 16.418919,61.872154 23.700554,61.872154 
	C23.700554,44.941540 23.700554,28.552752 23.700554,12.000000 
	C15.911116,12.000000 8.455558,12.000000 1.000000,12.000000 
	C1.000000,8.350668 1.000000,4.701336 1.000000,1.000000 
	C28.020874,1.000000 55.041779,1.000000 82.428711,1.354741 
	C77.375763,3.745144 72.070427,6.190928 66.514023,7.730718 
	C55.099697,10.893853 44.525833,17.222992 32.119102,16.917700 
	C31.116619,16.893030 29.182209,19.814987 29.139174,21.407103 
	C28.864788,31.558189 29.074711,41.721188 28.959724,51.878391 
	C28.918182,55.548031 30.419853,57.739838 34.065083,57.774475 
	C40.452583,57.835163 45.596130,60.720566 50.170364,64.674164 
	C57.024010,70.597893 64.815865,71.687149 73.481216,70.551476 
	C82.301895,69.395432 91.195213,68.437241 100.075500,68.240593 
	C104.606689,68.140259 109.157974,70.027687 113.739342,70.777199 
	C117.541161,71.399155 121.820587,70.959297 123.136467,67.114029 
	C124.025360,64.516525 122.745865,60.856880 121.609055,58.001705 
	C120.882530,56.176964 118.808746,54.721703 117.060242,53.499596 
	C109.342049,48.105026 100.877441,44.327461 91.484825,43.180702 
	C87.407730,42.682926 83.618652,41.844887 82.424515,37.621418 
	C81.907127,35.791512 82.686707,32.705330 84.042809,31.412155 
	C87.319870,28.287174 91.183517,30.059090 94.721367,31.596294 
	C105.459343,36.261951 115.236816,42.389870 123.824883,50.423679 
	C126.471046,52.899071 129.415039,55.183277 132.569061,56.929298 
	C133.931900,57.683750 136.847168,57.539299 137.844315,56.563599 
	C139.073517,55.360840 139.501907,52.843506 139.410599,50.935711 
	C139.329559,49.242268 138.223450,47.510677 137.296127,45.959553 
	C132.445358,37.845749 127.688278,29.665176 122.498680,21.770729 
	C120.754524,19.117525 118.191864,16.497841 115.385437,15.137731 
	C105.063988,10.135533 94.483208,5.668430 84.000000,1.000000 
	C131.929443,1.000000 179.858887,1.000000 228.000000,1.000000 
	C228.000000,52.020699 228.000000,103.041695 227.546844,154.660217 
	C217.852982,155.257767 208.612305,155.257767 199.418457,155.257767 
	C199.418457,174.233047 199.418457,192.454315 199.418457,211.000000 
	C209.106216,211.000000 218.553101,211.000000 228.000000,211.000000 
	C228.000000,214.979050 228.000000,218.958099 228.000000,223.000000 
	C204.312469,223.000000 180.624893,223.000000 156.603256,222.626648 
	C158.218567,221.888885 160.345825,221.906998 162.087891,221.096832 
	C171.984131,216.494492 181.802750,211.723495 191.592255,206.897278 
	C192.264130,206.566071 192.855377,205.320663 192.859604,204.497192 
	C192.935364,189.720901 192.914688,174.944122 192.914688,160.207153 
	C174.535339,158.748138 168.339005,158.939682 158.104645,164.879913 
	C149.036667,170.143188 139.940247,173.162186 129.438400,172.001144 
	C125.908112,171.610840 122.828171,173.180130 121.689278,176.929382 
	C120.488792,180.881348 122.979073,183.219376 125.911217,185.033173 
	C127.570915,186.059860 129.484802,187.058151 131.370926,187.260422 
	C135.974426,187.754135 140.659470,187.533173 145.245819,188.117233 
	C146.922607,188.330780 148.413315,190.005402 149.988922,191.013458 
	C148.410904,192.314056 146.844559,194.698380 145.252747,194.715515 
	C140.128876,194.770645 134.922394,194.336472 129.884384,193.375092 
	C123.463425,192.149796 118.882706,188.271683 116.309631,182.079910 
	C115.725746,180.674866 114.600174,179.126068 113.303238,178.447601 
	C106.256088,174.760880 99.137398,171.196350 91.924294,167.846069 
	C86.249687,165.210342 79.664467,167.185043 77.027740,171.952011 
	C74.292831,176.896469 75.771629,182.307663 81.389610,186.108810 
	C89.908997,191.873001 98.297813,197.945908 107.313736,202.833145 
	C120.612190,210.041779 134.413086,216.323502 148.000000,223.000000 
M90.606918,112.896446 
	C99.868767,127.203522 109.130623,141.510590 118.445992,155.900345 
	C136.857437,144.192291 154.990189,132.661469 173.132935,121.124275 
	C162.008072,103.986443 151.184937,87.464272 140.557617,70.817108 
	C138.385147,67.414062 136.220932,64.716049 132.139648,65.369743 
	C128.573578,70.333275 130.753387,74.215950 133.653839,78.418785 
	C140.496552,88.334045 146.956635,98.513374 153.579819,108.598602 
	C150.082092,112.054253 148.132370,115.626610 149.858704,120.447701 
	C150.126450,121.195412 149.238174,122.868980 148.418823,123.412712 
	C142.103012,127.603966 135.672409,131.622192 129.036011,135.847763 
	C125.469963,130.856613 120.735489,130.828812 115.633072,132.624664 
	C104.113594,115.112213 92.735100,97.773811 81.281685,80.485023 
	C80.442413,79.218147 79.093719,77.447350 77.926094,77.403740 
	C74.923592,77.291573 71.889725,78.018944 68.317635,78.482239 
	C75.810081,90.081551 82.990639,101.198013 90.606918,112.896446 
M170.712784,87.763062 
	C163.158508,76.135017 155.604233,64.506973 148.151428,53.035110 
	C146.479309,56.720921 144.970779,60.046146 143.396744,63.515770 
	C154.291245,80.301041 165.348465,97.246864 176.302948,114.258850 
	C180.712677,121.107033 179.826675,124.523300 172.822845,128.981140 
	C168.068909,132.006958 163.275909,134.971359 158.521011,137.995667 
	C150.902206,142.841537 143.300507,147.714294 135.517899,152.686676 
	C137.297134,155.304291 138.760101,157.456589 140.264679,159.670120 
	C158.620911,148.029831 176.628784,136.610474 194.880310,125.036583 
	C186.755096,112.532692 178.912079,100.463089 170.712784,87.763062 
M114.222984,108.288383 
	C122.751671,109.231270 129.984299,104.173569 131.053192,96.519196 
	C132.246307,87.975174 127.279488,80.936600 118.918060,79.322296 
	C111.757866,77.939896 104.349083,82.911293 102.353844,90.437088 
	C100.278412,98.265327 104.902939,105.647583 114.222984,108.288383 
z"/>
<path fill="#020202" opacity="1.000000" stroke="none" 
	d="
M83.750000,1.000000 
	C94.483208,5.668430 105.063988,10.135533 115.385437,15.137731 
	C118.191864,16.497841 120.754524,19.117525 122.498680,21.770729 
	C127.688278,29.665176 132.445358,37.845749 137.296127,45.959553 
	C138.223450,47.510677 139.329559,49.242268 139.410599,50.935711 
	C139.501907,52.843506 139.073517,55.360840 137.844315,56.563599 
	C136.847168,57.539299 133.931900,57.683750 132.569061,56.929298 
	C129.415039,55.183277 126.471046,52.899071 123.824883,50.423679 
	C115.236816,42.389870 105.459343,36.261951 94.721367,31.596294 
	C91.183517,30.059090 87.319870,28.287174 84.042809,31.412155 
	C82.686707,32.705330 81.907127,35.791512 82.424515,37.621418 
	C83.618652,41.844887 87.407730,42.682926 91.484825,43.180702 
	C100.877441,44.327461 109.342049,48.105026 117.060242,53.499596 
	C118.808746,54.721703 120.882530,56.176964 121.609055,58.001705 
	C122.745865,60.856880 124.025360,64.516525 123.136467,67.114029 
	C121.820587,70.959297 117.541161,71.399155 113.739342,70.777199 
	C109.157974,70.027687 104.606689,68.140259 100.075500,68.240593 
	C91.195213,68.437241 82.301895,69.395432 73.481216,70.551476 
	C64.815865,71.687149 57.024010,70.597893 50.170364,64.674164 
	C45.596130,60.720566 40.452583,57.835163 34.065083,57.774475 
	C30.419853,57.739838 28.918182,55.548031 28.959724,51.878391 
	C29.074711,41.721188 28.864788,31.558189 29.139174,21.407103 
	C29.182209,19.814987 31.116619,16.893030 32.119102,16.917700 
	C44.525833,17.222992 55.099697,10.893853 66.514023,7.730718 
	C72.070427,6.190928 77.375763,3.745144 82.897369,1.354741 
	C83.000000,1.000000 83.500000,1.000000 83.750000,1.000000 
z"/>
<path fill="#020202" opacity="1.000000" stroke="none" 
	d="
M148.444168,223.000000 
	C134.413086,216.323502 120.612190,210.041779 107.313736,202.833145 
	C98.297813,197.945908 89.908997,191.873001 81.389610,186.108810 
	C75.771629,182.307663 74.292831,176.896469 77.027740,171.952011 
	C79.664467,167.185043 86.249687,165.210342 91.924294,167.846069 
	C99.137398,171.196350 106.256088,174.760880 113.303238,178.447601 
	C114.600174,179.126068 115.725746,180.674866 116.309631,182.079910 
	C118.882706,188.271683 123.463425,192.149796 129.884384,193.375092 
	C134.922394,194.336472 140.128876,194.770645 145.252747,194.715515 
	C146.844559,194.698380 148.410904,192.314056 149.988922,191.013458 
	C148.413315,190.005402 146.922607,188.330780 145.245819,188.117233 
	C140.659470,187.533173 135.974426,187.754135 131.370926,187.260422 
	C129.484802,187.058151 127.570915,186.059860 125.911217,185.033173 
	C122.979073,183.219376 120.488792,180.881348 121.689278,176.929382 
	C122.828171,173.180130 125.908112,171.610840 129.438400,172.001144 
	C139.940247,173.162186 149.036667,170.143188 158.104645,164.879913 
	C168.339005,158.939682 174.535339,158.748138 192.914688,160.207153 
	C192.914688,174.944122 192.935364,189.720901 192.859604,204.497192 
	C192.855377,205.320663 192.264130,206.566071 191.592255,206.897278 
	C181.802750,211.723495 171.984131,216.494492 162.087891,221.096832 
	C160.345825,221.906998 158.218567,221.888885 156.134598,222.626648 
	C153.629440,223.000000 151.258896,223.000000 148.444168,223.000000 
z"/>
<path fill="#040404" opacity="1.000000" stroke="none" 
	d="
M228.000000,210.531342 
	C218.553101,211.000000 209.106216,211.000000 199.418457,211.000000 
	C199.418457,192.454315 199.418457,174.233047 199.418457,155.257767 
	C208.612305,155.257767 217.852982,155.257767 227.546844,155.128876 
	C228.000000,173.354233 228.000000,191.708450 228.000000,210.531342 
z"/>
<path fill="#000000" opacity="1.000000" stroke="none" 
	d="
M1.000000,12.468657 
	C8.455558,12.000000 15.911116,12.000000 23.700554,12.000000 
	C23.700554,28.552752 23.700554,44.941540 23.700554,61.872154 
	C16.418919,61.872154 9.175797,61.872154 1.466338,61.936077 
	C1.000000,45.645771 1.000000,29.291544 1.000000,12.468657 
z"/>
<path fill="#040404" opacity="1.000000" stroke="none" 
	d="
M90.389053,112.605461 
	C82.990639,101.198013 75.810081,90.081551 68.317635,78.482239 
	C71.889725,78.018944 74.923592,77.291573 77.926094,77.403740 
	C79.093719,77.447350 80.442413,79.218147 81.281685,80.485023 
	C92.735100,97.773811 104.113594,115.112213 115.633072,132.624664 
	C120.735489,130.828812 125.469963,130.856613 129.036011,135.847763 
	C135.672409,131.622192 142.103012,127.603966 148.418823,123.412712 
	C149.238174,122.868980 150.126450,121.195412 149.858704,120.447701 
	C148.132370,115.626610 150.082092,112.054253 153.579819,108.598602 
	C146.956635,98.513374 140.496552,88.334045 133.653839,78.418785 
	C130.753387,74.215950 128.573578,70.333275 132.139648,65.369743 
	C136.220932,64.716049 138.385147,67.414062 140.557617,70.817108 
	C151.184937,87.464272 162.008072,103.986443 173.132935,121.124275 
	C154.990189,132.661469 136.857437,144.192291 118.445992,155.900345 
	C109.130623,141.510590 99.868767,127.203522 90.389053,112.605461 
z"/>
<path fill="#060606" opacity="1.000000" stroke="none" 
	d="
M170.890930,88.078278 
	C178.912079,100.463089 186.755096,112.532692 194.880310,125.036583 
	C176.628784,136.610474 158.620911,148.029831 140.264679,159.670120 
	C138.760101,157.456589 137.297134,155.304291 135.517899,152.686676 
	C143.300507,147.714294 150.902206,142.841537 158.521011,137.995667 
	C163.275909,134.971359 168.068909,132.006958 172.822845,128.981140 
	C179.826675,124.523300 180.712677,121.107033 176.302948,114.258850 
	C165.348465,97.246864 154.291245,80.301041 143.396744,63.515770 
	C144.970779,60.046146 146.479309,56.720921 148.151428,53.035110 
	C155.604233,64.506973 163.158508,76.135017 170.890930,88.078278 
z"/>
<path fill="#030303" opacity="1.000000" stroke="none" 
	d="
M113.836273,108.218933 
	C104.902939,105.647583 100.278412,98.265327 102.353844,90.437088 
	C104.349083,82.911293 111.757866,77.939896 118.918060,79.322296 
	C127.279488,80.936600 132.246307,87.975174 131.053192,96.519196 
	C129.984299,104.173569 122.751671,109.231270 113.836273,108.218933 
z"/>
</svg>